<svg xmlns="http://www.w3.org/2000/svg" id="Layer_1" data-name="Layer 1" viewBox="0 0 24 24" width="300" height="300" version="1.1" xmlns:xlink="http://www.w3.org/1999/xlink" xmlns:svgjs="http://svgjs.dev/svgjs"><g width="100%" height="100%" transform="matrix(1,0,0,1,0,0)"><path d="M22.849,7.68l-.869-.68h.021V2h-2v3.451L13.849,.637c-1.088-.852-2.609-.852-3.697,0L1.151,7.68c-.731,.572-1.151,1.434-1.151,2.363v13.957H9V15c0-.551,.448-1,1-1h4c.552,0,1,.449,1,1v9h9V10.043c0-.929-.42-1.791-1.151-2.363Zm-.849,14.32h-5v-7c0-1.654-1.346-3-3-3h-4c-1.654,0-3,1.346-3,3v7H2V10.043c0-.31,.14-.597,.384-.788L11.384,2.212c.363-.284,.869-.284,1.232,0l9,7.043c.244,.191,.384,.478,.384,.788v11.957Z" fill="#ffffff" fill-opacity="1" data-original-color="#000000ff" stroke="none" stroke-opacity="1"/></g></svg>