<?xml version="1.0" encoding="UTF-8"?>
<svg xmlns="http://www.w3.org/2000/svg" id="Layer_1" data-name="Layer 1" viewBox="0 0 24 24">
  <path d="M20.5,5c-1.105,0-2-.895-2-2,0-1.105,.895-2,2-2s2,.895,2,2c0,1.105-.895,2-2,2Zm-7.5,.75l2.509-2.17c.34-.305,.34-.837,0-1.142L13,.25V2h-3V4h3v1.75Zm-1,5v-1.75h3v-2h-3s0-1.75,0-1.75l-2.509,2.17c-.34,.305-.34,.837,0,1.142l2.509,2.188Zm10-1.75h2v-1c0-1.103-.897-2-2-2h-3c-1.103,0-2,.897-2,2v1h2v-1s3,0,3,0v1ZM2,1H6c1.103,0,2,.897,2,2v6S0,9,0,9V3C0,1.897,.897,1,2,1Zm0,6H6V3h-1v2s-2,0-2,0V3H2V7Zm18.849,4.004c-.804,.037-1.545,.386-2.085,.981l-3.224,3.543c-.551-.911-1.541-1.528-2.681-1.528H3c-1.654,0-3,1.346-3,3v7H2v-7c0-.551,.449-1,1-1H12.858c.629,0,1.142,.512,1.142,1.142,0,.565-.421,1.051-.98,1.131l-5.161,.737,.283,1.979,5.161-.737c1.171-.167,2.119-.984,2.507-2.051l4.434-4.871c.355-.411,1.036-.437,1.427-.067,.407,.372,.44,1.009,.072,1.421l-8.299,9.315h2.679l7.114-7.984c1.094-1.225,.996-3.123-.218-4.23-.595-.541-1.356-.823-2.169-.782Z"/>
</svg>
